<?xml version="1.0" encoding="utf-8"?>
<!-- Generator: Adobe Illustrator 27.0.1, SVG Export Plug-In . SVG Version: 6.00 Build 0)  -->
<svg version="1.1" id="Lager_1" xmlns="http://www.w3.org/2000/svg" xmlns:xlink="http://www.w3.org/1999/xlink" x="0px" y="0px"
	 viewBox="0 0 200 200" style="enable-background:new 0 0 200 200;" xml:space="preserve">
<path d="M100.6,10.7c-49.5-1-86.4,39.9-88.7,81.2c-3.2,56.9,41.3,92.3,82.4,94.6c56.4,3.2,95.5-40.1,95.5-87.5
	C189.6,50.2,150.3,10.4,100.6,10.7z M101.2,184c-50-0.4-86-36.9-86.9-85.4c-0.8-43.3,34.8-89,93.3-85c41.3,2.8,78.8,38,79.2,85
	C186,148.8,146.7,184.4,101.2,184z"/>
<path d="M182.9,99c1.2-46.4-37.2-80.7-78.2-82.3C53.9,14.7,19.8,53.4,18,94c-2.3,50.9,37.8,84.6,78.5,86.5
	C146.4,182.8,184.3,142.6,182.9,99z M138.5,33.5c1.4-1.6,1.8,0.3,2.6,0.7c6.3,3.3,8.8,8.9,9.4,16c-1.1-6.5-5.3-10.5-10.9-13.5
	C138.6,36.2,137,35.2,138.5,33.5z M133.5,147.9c0.9,2.2,2,4.5,1.1,7.4c-2.3-2.2-4.8-4.1-6.8-6.4c-3.3-3.7-2.6-9.3,1.8-11.1
	c3.2-1.4,5.4-3.4,7.4-6.3c0.1,3.4,4.3,3.6,5,7.1c-3.5-2.3-6.1-2.4-8.7,0.9C130.8,142.6,132.3,145,133.5,147.9z M101,141.2
	c-24.5,0.6-43.5-19.7-43-42.5c-0.3-25.6,19.2-43,42.2-42.9c24.7,0.2,43.2,16.8,43.4,42.5C143.8,123.8,125.5,140.6,101,141.2z
	 M115.9,154c0,2.6-1.1,4.6-3,5.9c-1.3,0.9-3.4,2.9-4.7,1.1c-1.3-1.7,1.9-1.4,2.5-2.7c0.8-1.5,3.5-2.3,0.9-4.7
	c-1.1-0.9-3.3-1.7-2.3-3.7c0.5-1,2.2-2.2,3-2c2,0.5,2.6,2.6,3.4,4.3C116,152.7,115.9,153.5,115.9,154z M107.6,154
	c0.7,0.1,2,0.1,2.3,1.5c-0.1,1-0.9,1.8-1.9,1.9c-1.2,0.2-1.2-0.9-1.1-1.7C107,155.1,106.4,153.9,107.6,154z M101.2,149.2
	c0.8,7.1,2.6,12.8,1.4,18.6c-0.5,2.4-3.9,2.6-6.4,3.5C103.9,165.6,97.7,157.2,101.2,149.2z M100.4,146.9c2.3-2.1,5.3-1.3,9.2-1.3
	C105.8,147.3,103.4,150.4,100.4,146.9z M64,162.8c-1.1-8.6-2.2-17.2-3.5-27.1C68.1,144.8,63.4,154.3,64,162.8z M40.1,123.6
	c-2.1-1.2-4.2-2.7-6.3-3.4c-4.8-1.8-4.3-5.6-4.6-9.3c2.5,3.5,5.6,6.3,9.2,8.5c1.7,1,2.7,1.6,4.4-0.9c3-4.5,3.5-9.2,2.9-14.9
	c3.7,2.2,4.9,5.6,7.1,8c0.1,0.1,2.1,1.5,0,2c-4.9,1.3-5.5,6.5-8.9,9.7c3.5,0,7,0,11.1,0c-2,3.3-3.8,4.2-6.8,2.4
	c-3.2-1.9-5.5-0.9-6,3c0,0.3-0.3,0.6-0.4,0.9c-0.4,4.8-2.4,7.1-7.6,4.4c4.3-1.2,4.8-5.6,7-8.5C42.2,124.3,40.8,124,40.1,123.6z
	 M37.8,93.4c-1-0.1-1.2-0.9-1.3-2.2c-0.4-3,0-6.1-0.8-9c-0.5-2.2,0.5-3.1,1.7-4.7c1.2,4.9,1.9,9.3,1.5,13.8
	C38.8,92.1,39.4,93.6,37.8,93.4z M27.1,78.6c0.9-5.3,9.1-11.1,14.1-9.9c8,1.8,14,4.8,12.5,15.4C48.3,74.9,40,70.6,27.1,78.6z
	 M35.4,91.9c-2.9,2.1-5.3,2.6-8.1,2.8C29.5,91.5,29.5,91.5,35.4,91.9z M32.6,81.8c0.3,2.3,2.2,4.4,0.9,7.3c-0.8-1.3-3.2,0.6-3.6-2.1
	C29.6,84.7,30.3,82.9,32.6,81.8z M53.8,95.2c-0.3,0.3-0.6-0.3-0.9-0.7c-1.6-2.6,1-3.7,1.5-5.8c0.3,0.4,0.4,0.5,0.4,0.6
	C54.7,91.3,55.8,93.6,53.8,95.2z M43.1,81.7c2.4,2.8,2.3,5.1,0,7.7C43.1,86.8,43.1,84.5,43.1,81.7z M44.2,78.2
	c10,3.9,5.4,11,5.2,16.9c-1.6-0.6-3.3-1.3-5.2-2C48.2,88.7,47.7,83.9,44.2,78.2z M54,100.7c2.3,2.8-0.5,6.5,1.8,9.5
	c-2.8-3.8-6.5-6.5-10.2-10.6C48.9,100.4,51.6,97.8,54,100.7z M54.5,127.5c0.1-0.3,0.8-0.5,1.1-0.7c0.1,1.1,0.2,2.2,0.4,4.4
	C55,129.4,54,128.8,54.5,127.5z M55.6,120.5c-2,0.3-4.2,0.1-6.2,0.1c0-0.3-0.1-0.6-0.2-0.9c1.8-1,3.6-2,5.2-3.1
	c1.2-0.8,2.3-1.5,3.4-0.3c0.6,0.7,1.2,2.2,0.9,2.5C58,119.5,56.8,120.3,55.6,120.5z M59.9,121.1c5.9,8.4,11.8,15.2,21.5,19
	c-2.6,0.5-4.3,0.8-4.5,3.3c-0.6,5.9-0.7,5.9-6.4,9.7c-1-6.6-1-6.7,4.3-10.8c1.7-1.3,1.5-2.6-0.2-3.5c-5.3-2.8-9.2-7.5-14.5-10.4
	C56.8,126.7,60.6,124.2,59.9,121.1z M63.9,134.4c2.6,1.7,4.8,3,7.3,4.7C66.7,140.3,64.6,138.9,63.9,134.4z M74.7,153.3
	c2.7-1.6,5.7-2.6,3.6-7.7c3.5,2.1,5.6,3.1,2.3,5.7c-1,0.8-1.8,2-2.8,2.8c-3,2.3-6.2,4.4-9.3,6.6C69.2,156.8,72,154.9,74.7,153.3z
	 M137.3,53.6c2.1,2.1,3.9,2.4,6.5,1c2.6-1.4,2.5-3.1,1.4-5.2c-0.8-1.6,0.8-2.2,1.4-3.4c-0.7,2.3,1.7,3.8,1.1,6.2
	c-1.4,5.2-7.6,7.5-13.4,4.4c-2.6-1.4-5-3.2-7.3-5.3C130.8,50.3,134.5,50.8,137.3,53.6z M134.1,41.8c1.5-1.6,2.2-0.5,2.9,0.5
	c2.3,3.2,7.9,4.1,6.6,10.3c-3.3-2.5-6.4-4.9-9.4-7.2C132.6,44.2,132.8,43.3,134.1,41.8z M53.6,56.9c4.2,5.5,8.6,0.6,13.1,0.5
	c-1.1,3.2-3.8,4-5.8,5.5c-1.7,1.3-3.9,2.7-6.2,0.8C52.5,62.1,52.6,60,53.6,56.9z M40.8,54c6.8-1,13-1.4,18.6,2.5
	C53.8,52.9,47,57.7,40.8,54z M58.7,42.6c-2.5-1.8,0.8-3.8,1.5-6.1c2.3,7.6,9.1,10.9,13.3,17C64.4,55.8,63.7,46.1,58.7,42.6z
	 M57.4,35.6c-0.6,5.6-4.8,6.2-9.7,7.3C50.4,38.8,53.6,36.9,57.4,35.6z M35.9,52.3L35.9,52.3c5-8,11.2-8.3,19.1-0.6
	C48.2,49,42.1,52.3,35.9,52.3L35.9,52.3z M35.7,52.6c0.7,5.4,4.4,8.8,9.9,9c2.8,0,5.2,0.2,6.9,3c1.8,3,4.5,3.7,8,2.1
	c6.6-3,13.1-6.8,16.9-12.7c2.5-3.8,5.2-7.1,8.1-10.5c0.2-0.2,0.5-0.4,0.9-0.7c2,4.8-4.1,5.6-4.5,9.3c4.3,1.5,8.4-0.6,12.5-1
	c1.5-0.1,3.2-0.4,4.8-0.6c1.5-0.3,3.7,1.1,4.4-0.8c0.6-1.5-1.6-2.2-2.5-3.4c-0.7-0.9-1.5-1.8-2.4-2.5c-1-0.8-1.1-1.9-0.7-2.7
	c0.7-1.4,1.7,0.2,2.4,0.1c4.5-0.5,6.5,4,10.2,4.9c1.3-7.1-1.5-13.7-1.9-20.5c-0.1-2.1-1.5-2.2-2.9-0.6c-1.8,1.9-3.5,3.9-6.2,4.5
	c-0.9,0.2-1.8,2.2-2.7,0.1c-0.5-1.3,0.4-1.9,1.6-2.5c1.8-1,3.4-2.5,5.2-3.6c0.9-0.5,2-0.9,1.7-1.9c-0.3-0.9-1.4-1.1-2.5-1.2
	c-7.1-0.4-13.9,0.6-20.7,3.2c1.1,3.5,6.9,4.5,5.4,9.5c-3.9-1.7-7.7-3.5-10.8-6.4c-0.9-0.8-1.7-1.8-3-1.3c-1.8,0.7-0.7,2.3-0.9,3.4
	c-1,5.3,1.4,10.2,2.5,15.2c0.5,2,0.4,3.9,0.4,7c-6.5-4.9-11.9-9.5-13.7-17c-0.4-1.8-0.2-3.5-3.4-2.9c8.7-5.8,17.6-9,26.9-10.7
	c13.7-2.4,27.3-1.7,40.6,2.8c1.6,0.5,2.9,1.4,4.4,1.9c8.9,3.5,8.8,3.4,4.4,11.4c-4.1,7.4-9.7,13.2-16.7,17.9
	c-1.3,0.9-2.1,0.7-3.5,0.2c-23.9-8.1-49.9,5.2-58.6,29.2c1-8.3-2.7-14-10.2-16.5c-8.1-2.8-15.1-0.3-20.7,6.5
	C26.8,66,31,59.2,35.7,52.6L35.7,52.6L35.7,52.6z M93,35.3c4.9-2,9.6-4.1,13.5-7.4c0.7,7.1-5.1,6.8-9.1,7.5c-3.8,0.7-5,2.2-4.6,5.8
	c0.4,3.4,0.4,6.7-4.5,7.4c1.5-7.6,5.2-15.4-1.7-23C92.8,26.8,92.8,26.8,93,35.3z M89.5,24.1c3.4-1.4,7-1.8,12.1-1.2
	C96.8,24.2,93.5,27,89.5,24.1z M77.8,30.1c3.4,3.5,7.4,4.1,10.8,5.9C82.2,38.3,79.5,37,77.8,30.1z M77.5,48.3
	c1.8-6.6-3.4-10.8-2.5-16.3C79.7,36.5,83,41,77.5,48.3z M23.6,79.3c-0.8,6,2.6,12.4-2.5,18.3C20.3,91,22.1,85.1,23.6,79.3z
	 M26.2,124.1c-3.6-7.2-5.2-14.8-5.3-22.7c0-2.2,0.6-2.9,2.8-2.8c6.8,0.1,13.6,0,21.1,0c-1.4,2.5-0.7,4.9-0.8,7.2
	c-0.1,1.3,0.1,2.7,0,4c-0.5,2.9-1.7,6.1-3.8,7.5c-1.4,1-3.4-2.5-5-4c-2.9-2.7-5.6-5.6-8.9-9C26.2,111.3,26.2,117.7,26.2,124.1z
	 M29.6,134.7c-0.8-1.3-1.7-2.6-1.7-4.3c-0.1-1.6-3.4-3.2-0.3-4.6c3.2-1.5,7.2-1.5,9.7,1.2c1,1.1-1.2,3.9-3.6,4.5
	C31.7,132,30,132.5,29.6,134.7C29.6,134.7,29.6,134.7,29.6,134.7z M29.8,135c4,1.8,6.5,5.3,9.1,8.6c1.5,1.9,3,3.8,5.7,5.2
	c0.8-6.7-0.7-13.2,1.8-19.2c4.7,0,6.1,5.2,9.6,6.9c1.8-1.1,0-3.2,2.3-4.3c0,4.7,0,9.2,0,13.5c-1.7-2.1-3.6-5.1-7.3-3.7
	c-2.9,1.1-5.6,3-5,6.9c0.6,4,3.2,5.7,7,6.1c3.8,0.4,5.4-2.1,7-6.4c-0.5,7,1.8,12.4,2,18.1C53.7,164,38.7,152.2,29.8,135
	C29.8,135,29.8,135,29.8,135z M54.6,149.4c-1.2-0.6-2.4-0.9-3.7-0.8c-0.8,0-2.4,1.7-1.9-0.7c0.4-1.9,1.9-3.7,3.7-3.8
	c1.7-0.1,2.8,1.8,3.2,3.6C56.1,148.5,55.8,150,54.6,149.4z M95.7,149.4c-4.7-1.6-7.7-5.9-12.3-7.9c3.6,0.9,7.2,1.6,10.7,2.8
	C96.5,145.1,95.1,147.6,95.7,149.4C95.8,149.4,95.7,149.4,95.7,149.4z M96,149.8c2.9,4.5,2,9.5,1.9,14.3c-0.1,5.7-7.1,6.2-9.3,11.4
	c7.2-0.3,13.8,1,20.3-1.3c3.5-1.2,3.3-2.9,1.3-4.8c-3.4-3.1-2.2-3.9,1.5-5c7.1-2.2,9.7-6,9.2-12.4c-0.4-4.9-4.9-5.9-8.5-8.5
	c4.2-1.7,8-3.3,11.9-4.9c-1.3,6.6-0.9,7.3,7.2,17.7c-1.4,0.8-2.3-0.8-3.7-0.9c-1.5-0.1-3-1.9-4.4,0c-1.2,1.7-1.1,3.6,0.1,5.5
	c2.4,3.6,3.9,7.8,7.8,11c-23.1,8.3-45.1,8.2-67.7-3.2c10.1-4.6,18-11.1,27.5-15C93.2,152.7,95.8,152.6,96,149.8
	C95.9,149.7,95.9,149.7,96,149.8z M82.7,145c3,1.6,5.8,1.3,7,4.6C87.1,148.6,84.4,148.6,82.7,145z M124.8,157.1
	c4.9,2.3,6.5,5.7,7,11.5C128.6,164.6,126.8,161.3,124.8,157.1z M176.5,123.2c-7.5,21.5-21.2,37.5-42.5,47.2c0.8-2.7,0.9-4.9,3.8-6.6
	c4.2-2.5,4.1-8.8,0.5-14.4c-1.3-2-2.5-4.1-4-6.7c4.1-0.3,6,4,9.8,1.9c2.8-1.6,3.7-2.8,1.7-5.9c-2.3-3.6-6.6-5.8-7-10.8
	c-0.1-1.4-0.4-2.8,0.4-3.9c13.1-17.8,9-46.1-7.8-59.3c-0.9-0.7-1.8-1.4-2.4-2.5c4.3,0.9,8.4,2.5,12.5,1.3c4-1.2,7.2-4,9.4-7.5
	c4-6.5,2.6-11.7-5.4-22.1c5.3,3.2,10.6,6.6,14.4,11.7c0.9,1.2,1.8,2.3,2.8,3.3c2.6,2.7,4.4,6,6.2,9.2c-4.8,1.3-5.7,7.6-11.9,8.1
	c-4.2,0.4-8.1,0.9-11.8-0.8c-3.2-1.4-3.3-0.1-3.3,2.4c0,2.5,0.2,4.8,1.5,7.1c1,1.6,1.7,3.5,2.2,5.3c0.6,2.6,0,6.7,2.3,7.2
	c2.3,0.5,4.1-3.3,6.1-5.2c3.7-3.5,10-4.5,13.8-1.9c1.5,1,3.2,3.3,4.8,2c1.9-1.6,1.8-4.5,1.1-6.9c-0.6-2.3-1.8-4.5-2.4-6.8
	c-0.6-2.3-0.9-4.7-1.3-7.3C179,71.8,184.1,101.3,176.5,123.2z M169.8,78.1c-2-1.2-6-1.8-2.3-5.2C169.3,74.1,169.4,76.1,169.8,78.1z
	 M165.3,67.2c-0.3,0.2-2-0.6-1.9-0.9c0.1-1.3,1.2-2,2.3-2.5C165.8,65,166.4,66.3,165.3,67.2z M145.2,69.2c7.3,5.9,7.6,4.2,3.1,13
	C149.2,77.5,144,74.5,145.2,69.2z M150.3,70c2.9-0.8,5.9-1.7,8.9-2.4c1.5-0.4,3.2,0,3.5,1.7c0.3,1.7-2,2.1-2.7,2
	C156.8,71.1,152.8,75.9,150.3,70z"/>
<path d="M158.3,87.5c-1.4,2.4,2.1,5,2.9,7.8c0.1,0.4,0.8,0.7-0.2,1.3c-3.8-0.1-6.7-2.1-9.5-4.8c-1.3-1.2-3.5-2.8-3.5,0.7
	c0,7.7-0.2,15.3-2.6,23.3c2.4-1.2,4.1-1.8,5.6-2.8c6.8-4.7,13.9-4.5,21.3-1.6c2.8,1.1,3.6-0.1,3.7-3c0.3-8.1-1.6-16.4,2.1-24.6
	c-4.3,1.1-8.1,2.1-12,2.9C163.4,87.1,159.5,85.2,158.3,87.5z M149.8,107.7c0.6-3.2,1.5-5.9,1-9.1C155.1,102.5,153.6,105,149.8,107.7
	z M153.5,97.2c4.1,2.1,8.3,0.7,11.4,4.3C160.7,101.5,156.5,102.5,153.5,97.2z M171.7,107.6c-3.6-5.9-6.8-11.1-10.4-17
	C169.7,94.2,172.1,98.3,171.7,107.6z M163.5,88.9c3.4-0.2,6.8-0.4,10.3-1.5C170.8,93.5,167,90.9,163.5,88.9z"/>
<path d="M173.3,116.6c-5.1,1.1-9.1-1.8-13.6-3c-4.5-1.2-12.5,2.1-14.8,5.6c-3.5,5.1-1.6,9.5,1.2,14.2c3.5,5.9,7.7,11.7,8,19.6
	c5.8-3.9,8-9.8,11.9-14.2c1.4-1.6-0.2-2-1.1-2.3c-5.5-1.5-4.7-4.3-1.7-8c6,5.6,7,5.3,9.3-2.4c0.7-2.3,1.3-4.6,2-6.9
	C174.9,118,175.4,116.2,173.3,116.6z M167.2,128.8c-3.2-1.7-5-5.2-8.5-6.4c-2.5-0.8-5.1-1.8-6.9,0c-2,2-1.2,4.9,0.1,7.3
	c1.6,2.8,3.5,5.4,5.1,8.1c2.1,3.5,0.9,6-1.4,9.6c-1.7-6.8-5.9-11.5-8.5-17.1c-1.6-3.3-2.8-6.9,0.4-9.9c3.3-2.9,6.8-5.7,11.6-2.2
	c1.4,1,3.1,1.5,4.7,2.3C168.4,122.8,168.4,122.8,167.2,128.8z M157.4,130.6c-1.9-2.2-3.1-4.2-2.3-6.7
	C160.2,124.4,160.4,126.8,157.4,130.6z"/>
<path d="M121.4,40.7c4.5,0.2,5.9-2.1,5.5-5.8c0-5.8-3-9.1-7.6-9c-3.4,0.1-6.5,3.7-6.4,7.4C113,37.6,116.5,40.5,121.4,40.7z
	 M116.3,29.8c1.5-2,3.8-1.4,5.5-1c2.6,0.5,2.7,3.1,3.4,5.7c-3.7-1.5-6.5-1.1-8.6,2.1C114.3,34.1,114.7,31.9,116.3,29.8z"/>
<path d="M100.8,58.7C78.9,58.3,60,76.2,60.9,98.5c-1.7,20.1,17.4,40.1,39,40.1c23.8,0,40.8-17.9,40.9-39.3
	C140.9,75.4,122.8,59.1,100.8,58.7z M68.5,116c-6.5-11.6-6.1-23.3-0.4-35.9C71,92.7,68.6,104.4,68.5,116z M69.6,78.3
	c0.4-0.7,0.6-1.6,1.2-2c3.2-2.4,4.7-7,9.3-7.5c1.4-0.2,7.8,13.3,7.8,16.2c1,4.3-1.2,3.5-4.6,2.8c-5.5-1.3-8.9-5.6-13.5-8.1
	C68.9,79.1,69.3,78.9,69.6,78.3z M88.7,70.5c8.1,0.9,15.3-1.9,22.9-0.6C102.8,77.6,100.2,77.7,88.7,70.5z M109.6,92.4
	c6.4-0.3,11.1-4.1,16.2-7.9c-4.1,12.7-6.9,14.2-23.6,12.7C104,94.4,106.3,92.5,109.6,92.4z M98.6,99.2c0.5,4.9,1.9,8.9,1.2,13.1
	c-0.4,2.5-0.1,5.2-4.3,5.6c-3.1,0.3-6.1,2.5-9.1,3.8c3.8-5,6.6-10.2,7.4-16.3C94.3,102.6,96.8,101.6,98.6,99.2z M73.8,85.2
	c7,5.5,16.6,4.3,22,12.2C78.5,97.9,78.5,97.9,73.8,85.2z M97.7,77.9c1.8,0.9,2,3.3,1.7,4.3c-1.1,4.6,0,9.2-0.6,13.9
	c-6.1-3-10.2-7-8.9-14.7c0.7-4-4-5.9-4.6-10C89.6,73.7,93.6,75.8,97.7,77.9z M77.9,97.4c1.2,1.3,0.4,2.6-0.2,3.8
	c-2,3.6-4.1,7.2-7,12.2c0.5-9.7,2.5-18-0.5-27.4C74.3,89.9,75.1,94.3,77.9,97.4z M107.8,134.6c-13.9,2.6-25-1.9-34.8-11.5
	c-2.6-2.5-3.9-4.4,0.4-6.6c5-2.6,9.7-5.6,14.5-8.5c0.9-0.5,1.9-0.9,2.7-0.1c0.8,0.8-0.4,1.4-0.6,2.1c-1.3,4.3-4.2,7.5-7,10.9
	c-1.1,1.3-2.9,3.2-2.6,4.4c0.6,2.1,3.1,1.2,4.8,1.1c5.6-0.3,11.1,1.4,16.8,1.2c4.5-0.2,8.7-1.6,13.2-1.2c2.2,0.2,2.5-0.7,1.2-3
	c-2.7-4.9-6.6-9.2-8.4-15.1c6.5,1.6,12.4,3.1,17.7,6.2c3.4,2,4.8,0.5,5-2.8c0.3-3.3,0.9-6.6,0-9.9c-1.6-6-0.1-12,0.1-18
	c0.2-4.5-1.8-3.7-4.3-2.3c-2.4,1.4-5,2.6-6.8,4.6c-3.8,4.3-9,2.8-13.6,4.6c0.2-8.9,4.2-15.4,9.9-21.1c0.6-0.6,2-1,1.1-2.2
	c-0.3-0.5-1.1-0.9-1.6-0.9C104.3,68,93,69.3,81.8,67.3c9.7-7.3,25.3-8.2,37.6-0.4c12,7.6,19.2,18.7,18.4,33.3
	C136.9,116.7,125,131.3,107.8,134.6z"/>
</svg>
