<?xml version="1.0" encoding="utf-8"?>
<!-- Generator: Adobe Illustrator 26.5.0, SVG Export Plug-In . SVG Version: 6.00 Build 0)  -->
<svg version="1.1" id="Lager_1" xmlns="http://www.w3.org/2000/svg" xmlns:xlink="http://www.w3.org/1999/xlink" x="0px" y="0px"
	 viewBox="0 0 200 200" style="enable-background:new 0 0 200 200;" xml:space="preserve">
<style type="text/css">
	.st0{fill:#FEFEFE;}
</style>
<path d="M100.61,10.65c49.65-0.27,89.02,39.59,89.07,88.32c0.05,47.38-39.03,90.73-95.45,87.51C53.2,184.14,8.63,148.7,11.87,91.83
	C14.23,50.6,51.07,9.64,100.61,10.65z"/>
<path class="st0" d="M186.87,98.62c-0.9,50.14-40.19,85.76-85.64,85.43c-50.02-0.36-86-36.87-86.89-85.37
	c-0.79-43.29,34.82-88.99,93.32-85.03C148.92,16.44,186.49,51.63,186.87,98.62z"/>
<path d="M182.87,99.03c1.4,43.59-36.49,83.79-86.41,81.45c-40.63-1.9-80.73-35.63-78.46-86.53c1.81-40.53,35.89-79.21,86.72-77.21
	C145.65,18.34,184.06,52.6,182.87,99.03z"/>
<path class="st0" d="M134.31,142.74c4.09-0.29,6.04,4.01,9.75,1.85c2.78-1.62,3.67-2.76,1.69-5.9c-2.28-3.62-6.65-5.85-7.01-10.85
	c-0.1-1.43-0.42-2.8,0.39-3.91c13.13-17.76,9.05-46.14-7.77-59.35c-0.9-0.71-1.84-1.38-2.44-2.51c4.29,0.91,8.37,2.53,12.46,1.26
	c3.95-1.23,7.2-3.97,9.39-7.51c4.04-6.52,2.6-11.73-5.4-22.13c5.33,3.24,10.62,6.61,14.38,11.73c0.88,1.19,1.81,2.31,2.82,3.34
	c2.62,2.7,4.38,5.95,6.23,9.15c-4.81,1.26-5.71,7.56-11.85,8.09c-4.17,0.36-8.07,0.87-11.78-0.82c-3.18-1.44-3.29-0.1-3.33,2.39
	c-0.04,2.51,0.2,4.83,1.5,7.07c0.96,1.64,1.74,3.45,2.21,5.28c0.65,2.55,0.04,6.71,2.31,7.2c2.31,0.5,4.09-3.31,6.1-5.21
	c3.71-3.51,10.02-4.47,13.78-1.9c1.51,1.03,3.16,3.31,4.78,1.95c1.9-1.59,1.76-4.5,1.08-6.92c-0.64-2.3-1.78-4.47-2.4-6.78
	c-0.62-2.3-0.89-4.7-1.35-7.29c9.19,10.85,14.29,40.38,6.67,62.24c-7.47,21.46-21.2,37.5-42.55,47.2c0.78-2.7,0.9-4.89,3.81-6.58
	c4.25-2.47,4.12-8.82,0.51-14.43C137.01,147.4,135.84,145.31,134.31,142.74z"/>
<path class="st0" d="M35.64,52.33c0.66,5.53,4.36,9.11,9.99,9.22c2.84,0.05,5.19,0.15,6.91,3.05c1.78,2.99,4.47,3.67,7.98,2.07
	c6.62-3.01,13.14-6.85,16.87-12.67c2.45-3.83,5.24-7.11,8.14-10.45c0.2-0.23,0.52-0.37,0.94-0.66c2,4.79-4.05,5.62-4.5,9.28
	c4.35,1.54,8.38-0.63,12.48-0.96c1.53-0.12,3.21-0.35,4.8-0.62c1.52-0.26,3.7,1.06,4.42-0.82c0.57-1.49-1.61-2.22-2.49-3.35
	c-0.71-0.91-1.55-1.76-2.44-2.48c-0.95-0.77-1.13-1.88-0.7-2.68c0.72-1.36,1.68,0.22,2.41,0.14c4.45-0.52,6.5,4,10.23,4.89
	c1.28-7.13-1.55-13.71-1.86-20.54c-0.1-2.11-1.47-2.22-2.91-0.64c-1.76,1.93-3.54,3.89-6.25,4.54c-0.89,0.21-1.82,2.17-2.67,0.12
	c-0.53-1.3,0.4-1.85,1.58-2.47c1.84-0.97,3.36-2.54,5.17-3.59c0.88-0.51,2.03-0.85,1.71-1.93c-0.27-0.92-1.39-1.12-2.48-1.18
	c-7.09-0.4-13.94,0.63-20.69,3.25c1.07,3.55,6.91,4.49,5.39,9.52c-3.93-1.67-7.66-3.53-10.82-6.36c-0.86-0.77-1.66-1.78-2.98-1.29
	c-1.82,0.67-0.71,2.26-0.93,3.42c-0.98,5.35,1.36,10.23,2.47,15.25c0.45,2.02,0.38,3.87,0.35,7.04
	c-6.52-4.87-11.94-9.49-13.74-17.05c-0.43-1.79-0.25-3.45-3.42-2.94c8.68-5.8,17.58-9.04,26.88-10.68
	c13.67-2.41,27.28-1.65,40.58,2.8c1.56,0.52,2.92,1.36,4.4,1.94c8.87,3.47,8.83,3.41,4.4,11.39c-4.09,7.37-9.74,13.22-16.68,17.93
	c-1.29,0.87-2.12,0.66-3.52,0.18c-23.91-8.1-49.94,5.24-58.57,29.25c1.01-8.33-2.67-13.98-10.16-16.54
	c-8.14-2.78-15.11-0.3-20.72,6.46c1.56-8.2,5.87-15.04,10.56-21.7L35.64,52.33z"/>
<path class="st0" d="M95.85,149.59c3.02,4.5,2.07,9.6,1.99,14.48c-0.1,5.67-7.05,6.2-9.31,11.36c7.18-0.28,13.76,0.95,20.35-1.27
	c3.47-1.17,3.32-2.91,1.31-4.75c-3.41-3.11-2.2-3.88,1.5-5.02c7.11-2.18,9.68-5.99,9.2-12.39c-0.37-4.92-4.88-5.93-8.47-8.54
	c4.2-1.71,8.03-3.28,11.94-4.87c-1.26,6.55-0.93,7.34,7.25,17.68c-1.43,0.76-2.29-0.84-3.65-0.9c-1.47-0.06-3.05-1.87-4.36,0.01
	c-1.18,1.7-1.12,3.59,0.13,5.46c2.4,3.59,3.88,7.78,7.84,10.95c-23.13,8.26-45.11,8.15-67.72-3.25
	c10.07-4.58,18.03-11.08,27.47-15.03c2-0.84,4.67-0.92,4.65-4.07L95.85,149.59z"/>
<path class="st0" d="M57.93,98.77c-0.35-25.57,19.21-42.99,42.24-42.86c24.73,0.15,43.19,16.8,43.39,42.52
	c0.2,25.42-18.09,42.19-42.61,42.82C76.42,141.88,57.46,121.55,57.93,98.77z"/>
<path class="st0" d="M29.57,134.91c4.16,1.82,6.73,5.34,9.38,8.77c1.48,1.91,2.99,3.76,5.69,5.22c0.82-6.71-0.67-13.16,1.77-19.19
	c4.73,0.03,6.05,5.19,9.58,6.88c1.79-1.07,0.03-3.17,2.31-4.29c0,4.73,0,9.21,0,13.45c-1.72-2.08-3.61-5.14-7.33-3.68
	c-2.91,1.14-5.64,2.98-5.03,6.88c0.62,3.96,3.24,5.73,7.03,6.09c3.8,0.36,5.45-2.13,7-6.35c-0.49,6.99,1.75,12.4,2.01,18.13
	c-8.3-2.84-23.41-14.78-32.3-32.02L29.57,134.91z"/>
<path class="st0" d="M44.79,98.57c-1.36,2.53-0.7,4.89-0.84,7.16c-0.08,1.33,0.15,2.69-0.05,3.99c-0.46,2.9-1.69,6.07-3.78,7.46
	c-1.42,0.95-3.39-2.47-5.02-4.02c-2.87-2.72-5.57-5.61-8.92-9.01c0,7.16,0,13.54,0,19.92c-3.61-7.24-5.22-14.8-5.28-22.73
	c-0.02-2.17,0.58-2.86,2.79-2.81C30.5,98.65,37.33,98.57,44.79,98.57z"/>
<path class="st0" d="M34.4,134.02c4.26-1.2,4.79-5.55,6.96-8.51c0.85-1.16-0.56-1.52-1.28-1.93c-2.07-1.2-4.21-2.65-6.29-3.43
	c-4.83-1.81-4.27-5.57-4.61-9.28c2.5,3.52,5.63,6.27,9.22,8.48c1.66,1.02,2.74,1.6,4.41-0.95c2.99-4.54,3.54-9.25,2.91-14.94
	c3.66,2.18,4.86,5.58,7.11,8.01c0.07,0.07,2.08,1.5,0.02,2.04c-4.86,1.27-5.54,6.46-8.86,9.71c3.49,0,6.98,0,11.11,0
	c-2.04,3.27-3.76,4.25-6.82,2.43c-3.17-1.89-5.45-0.91-5.95,3.03c-0.04,0.31-0.32,0.59-0.35,0.9
	C41.57,134.41,39.54,136.67,34.4,134.02z"/>
<path class="st0" d="M27.09,78.64c0.93-5.28,9.07-11.09,14.06-9.93c7.97,1.85,14.03,4.85,12.5,15.42
	C48.31,74.91,40,70.62,27.09,78.64z"/>
<path class="st0" d="M59.87,121.07c5.9,8.41,11.82,15.2,21.49,19.03c-2.59,0.49-4.28,0.75-4.53,3.3c-0.57,5.93-0.74,5.91-6.41,9.67
	c-0.98-6.64-1-6.67,4.26-10.84c1.66-1.32,1.52-2.56-0.16-3.46c-5.28-2.84-9.21-7.5-14.52-10.35
	C56.81,126.7,60.56,124.18,59.87,121.07z"/>
<path class="st0" d="M137.05,131.39c0.14,3.45,4.32,3.57,5,7.14c-3.46-2.28-6.15-2.4-8.74,0.89c-2.51,3.18-0.98,5.58,0.22,8.46
	c0.91,2.17,1.97,4.51,1.1,7.37c-2.34-2.19-4.77-4.12-6.78-6.41c-3.28-3.74-2.59-9.26,1.8-11.12
	C132.89,136.35,135.05,134.36,137.05,131.39z"/>
<path class="st0" d="M86.63,25.62c6.13,1.16,6.15,1.21,6.39,9.7c4.86-2.04,9.57-4.06,13.54-7.44c0.73,7.15-5.09,6.82-9.11,7.55
	c-3.82,0.7-4.97,2.18-4.57,5.75c0.38,3.36,0.4,6.71-4.55,7.4C89.81,40.94,93.54,33.15,86.63,25.62z"/>
<path class="st0" d="M146.62,46.06c-0.71,2.27,1.7,3.85,1.09,6.17c-1.38,5.23-7.63,7.47-13.43,4.43c-2.63-1.38-5.03-3.2-7.34-5.35
	c3.89-1.05,7.52-0.46,10.36,2.33c2.11,2.07,3.87,2.42,6.5,1.04c2.64-1.38,2.5-3.13,1.42-5.24C144.4,47.86,146.07,47.25,146.62,46.06
	z"/>
<path class="st0" d="M73.45,53.5c-9.04,2.3-9.78-7.38-14.78-10.93c-2.47-1.76,0.79-3.79,1.52-6.11
	C62.52,44.1,69.33,47.41,73.45,53.5z"/>
<path class="st0" d="M35.78,52.47c5.04-8.16,11.2-8.52,19.2-0.72c-6.84-2.76-12.99,0.62-19.34,0.59
	C35.64,52.33,35.78,52.47,35.78,52.47z"/>
<path class="st0" d="M29.69,134.78c-0.81-1.37-1.72-2.66-1.81-4.38c-0.08-1.57-3.38-3.25-0.35-4.61c3.25-1.45,7.2-1.48,9.66,1.16
	c0.98,1.06-1.22,3.95-3.61,4.54c-1.97,0.48-3.68,1.07-4.01,3.41C29.57,134.91,29.69,134.78,29.69,134.78z"/>
<path class="st0" d="M49.37,95.14c-1.56-0.61-3.33-1.31-5.19-2.04c4.05-4.39,3.51-9.19-0.03-14.85
	C54.2,82.14,49.53,89.25,49.37,95.14z"/>
<path class="st0" d="M64.05,162.85c-1.12-8.6-2.24-17.21-3.54-27.14C68.13,144.85,63.38,154.33,64.05,162.85z"/>
<path class="st0" d="M53.58,56.92c4.17,5.45,8.61,0.57,13.15,0.54c-1.11,3.17-3.81,4.05-5.83,5.55c-1.73,1.28-3.85,2.7-6.22,0.85
	C52.46,62.14,52.6,60,53.58,56.92z"/>
<path class="st0" d="M115.93,153.98c-0.05,2.58-1.14,4.63-3.05,5.92c-1.32,0.89-3.36,2.85-4.65,1.09c-1.27-1.72,1.85-1.43,2.52-2.7
	c0.81-1.53,3.52-2.35,0.87-4.67c-1.06-0.93-3.34-1.69-2.35-3.71c0.49-0.99,2.2-2.23,3.05-2.04c1.96,0.45,2.59,2.62,3.43,4.3
	C116.02,152.71,115.89,153.46,115.93,153.98z"/>
<path class="st0" d="M96.19,171.32c7.67-5.73,1.48-14.16,5-22.13c0.81,7.08,2.63,12.82,1.42,18.64
	C102.1,170.23,98.66,170.44,96.19,171.32z"/>
<path class="st0" d="M143.62,52.62c-3.3-2.52-6.36-4.88-9.43-7.21c-1.55-1.17-1.44-2.14-0.11-3.58c1.48-1.61,2.2-0.55,2.94,0.46
	C139.35,45.45,144.91,46.39,143.62,52.62z"/>
<path class="st0" d="M55.77,110.16c-2.82-3.75-6.51-6.5-10.17-10.61c3.26,0.84,5.98-1.71,8.35,1.13
	C56.25,103.43,53.44,107.21,55.77,110.16z"/>
<path class="st0" d="M68.55,160.62c0.7-3.86,3.4-5.71,6.16-7.3c2.69-1.55,5.69-2.6,3.61-7.71c3.51,2.08,5.57,3.13,2.35,5.68
	c-1.03,0.82-1.78,2-2.84,2.78C74.79,156.32,71.65,158.45,68.55,160.62z"/>
<path class="st0" d="M150.46,50.2c-1.12-6.48-5.3-10.53-10.92-13.54c-0.92-0.49-2.52-1.44-1.08-3.11c1.38-1.61,1.76,0.28,2.56,0.7
	C147.32,37.55,149.87,43.18,150.46,50.2z"/>
<path class="st0" d="M145.16,69.24c7.28,5.88,7.63,4.23,3.06,13C149.2,77.55,143.98,74.53,145.16,69.24z"/>
<path class="st0" d="M150.31,70.03c2.94-0.8,5.89-1.69,8.89-2.39c1.53-0.36,3.24,0,3.54,1.73c0.29,1.67-2.02,2.11-2.67,2.05
	C156.8,71.13,152.75,75.91,150.31,70.03z"/>
<path class="st0" d="M37.41,77.45c1.2,4.92,1.9,9.32,1.51,13.82c-0.07,0.85,0.5,2.3-1.09,2.16c-1.03-0.09-1.15-0.91-1.34-2.2
	c-0.44-3.03-0.05-6.15-0.76-9.05C35.19,79.97,36.18,79.07,37.41,77.45z"/>
<path class="st0" d="M75.01,31.94c4.65,4.55,8.01,9.08,2.51,16.32C79.31,41.63,74.15,37.51,75.01,31.94z"/>
<path class="st0" d="M21.16,97.53c-0.84-6.58,0.96-12.41,2.47-18.27C22.88,85.21,26.27,91.68,21.16,97.53z"/>
<path class="st0" d="M95.99,149.44c-4.8-1.51-7.88-5.94-12.58-7.95c3.56,0.91,7.19,1.63,10.66,2.8c2.53,0.85,0.93,3.59,1.77,5.3
	C95.85,149.59,95.99,149.44,95.99,149.44z"/>
<path class="st0" d="M59.48,56.5c-5.71-3.61-12.49,1.24-18.65-2.55C47.67,52.97,53.88,52.52,59.48,56.5z"/>
<path class="st0" d="M49.23,119.58c1.75-1.03,3.58-1.95,5.22-3.14c1.18-0.85,2.3-1.48,3.39-0.26c0.58,0.65,1.21,2.21,0.92,2.52
	c-0.78,0.85-2,1.6-3.14,1.75c-2.05,0.27-4.15,0.08-6.24,0.08C49.33,120.21,49.28,119.9,49.23,119.58z"/>
<path class="st0" d="M77.78,30.14c3.4,3.45,7.38,4.06,10.84,5.89C82.25,38.29,79.51,37.03,77.78,30.14z"/>
<path class="st0" d="M47.74,42.89c2.69-4.07,5.87-5.98,9.68-7.33C56.81,41.18,52.64,41.79,47.74,42.89z"/>
<path class="st0" d="M50.9,148.54c-0.76,0.04-2.35,1.69-1.89-0.74c0.36-1.93,1.92-3.68,3.72-3.79c1.68-0.1,2.76,1.82,3.15,3.56
	c0.21,0.95-0.04,2.43-1.3,1.79C53.33,148.73,52.21,148.47,50.9,148.54z"/>
<path class="st0" d="M124.78,157.11c4.93,2.26,6.53,5.71,7.04,11.45C128.57,164.65,126.76,161.34,124.78,157.11z"/>
<path class="st0" d="M32.61,81.84c0.31,2.33,2.17,4.41,0.9,7.32c-0.83-1.26-3.21,0.6-3.57-2.08C29.63,84.73,30.27,82.87,32.61,81.84
	z"/>
<path class="st0" d="M101.56,22.96c-4.73,1.27-8.11,4.03-12.06,1.17C92.94,22.71,96.55,22.29,101.56,22.96z"/>
<path class="st0" d="M63.88,134.36c2.63,1.68,4.78,3.04,7.34,4.68C66.72,140.35,64.62,138.92,63.88,134.36z"/>
<path class="st0" d="M109.61,145.64c-3.82,1.65-6.2,4.73-9.2,1.26C102.76,144.81,105.69,145.59,109.61,145.64z"/>
<path class="st0" d="M35.43,91.88c-2.94,2.07-5.33,2.62-8.12,2.76C29.52,91.45,29.52,91.45,35.43,91.88z"/>
<path class="st0" d="M169.84,78.06c-1.95-1.17-5.99-1.78-2.3-5.18C169.31,74.11,169.42,76.07,169.84,78.06z"/>
<path class="st0" d="M54.43,88.71c0.26,0.37,0.39,0.48,0.39,0.58c-0.11,2.01,1,4.27-1.07,5.88c-0.35,0.27-0.6-0.27-0.86-0.69
	C51.31,91.92,53.86,90.74,54.43,88.71z"/>
<path class="st0" d="M82.7,145c2.99,1.57,5.85,1.31,7.05,4.58C87.11,148.65,84.41,148.65,82.7,145z"/>
<path class="st0" d="M43.13,81.72c2.39,2.78,2.34,5.1,0,7.71C43.13,86.78,43.13,84.45,43.13,81.72z"/>
<path class="st0" d="M109.87,155.5c-0.15,1.04-0.88,1.76-1.86,1.91c-1.21,0.18-1.17-0.9-1.07-1.66c0.08-0.62-0.54-1.89,0.64-1.71
	C108.28,154.15,109.63,154.13,109.87,155.5z"/>
<path class="st0" d="M165.65,63.83c0.17,1.2,0.74,2.5-0.36,3.37c-0.28,0.22-1.96-0.58-1.95-0.87
	C163.4,65.01,164.5,64.37,165.65,63.83z"/>
<path class="st0" d="M56.04,131.2c-1.05-1.83-2.06-2.45-1.52-3.66c0.15-0.34,0.76-0.49,1.15-0.72
	C55.76,127.9,55.85,128.98,56.04,131.2z"/>
<path d="M145.39,115.71c2.38-8.02,2.59-15.62,2.6-23.28c0-3.43,2.26-1.91,3.53-0.66c2.74,2.7,5.69,4.76,9.47,4.83
	c0.96-0.63,0.25-0.96,0.15-1.32c-0.72-2.78-4.23-5.39-2.87-7.81c1.28-2.27,5.17-0.37,7.82-0.92c3.84-0.8,7.63-1.82,11.96-2.88
	c-3.66,8.22-1.82,16.48-2.1,24.58c-0.1,2.89-0.82,4.14-3.66,3.03c-7.4-2.9-14.51-3.03-21.32,1.65
	C149.53,113.93,147.81,114.53,145.39,115.71z"/>
<path d="M163.23,128.62c-2.96,3.64-3.78,6.51,1.72,7.97c0.9,0.24,2.45,0.7,1.08,2.28c-3.86,4.45-6.07,10.29-11.86,14.2
	c-0.28-7.9-4.47-13.67-8.01-19.6c-2.84-4.76-4.71-9.12-1.24-14.23c2.36-3.47,10.37-6.79,14.82-5.61c4.49,1.19,8.48,4.11,13.59,3.01
	c2.1-0.45,1.59,1.37,1.2,2.68c-0.68,2.3-1.27,4.63-1.96,6.92C170.27,133.92,169.27,134.2,163.23,128.62z"/>
<path d="M126.9,34.86c0.41,3.7-0.98,5.96-5.48,5.81c-4.96-0.17-8.47-3.07-8.52-7.45c-0.04-3.67,3.08-7.24,6.44-7.36
	C123.95,25.71,126.88,29.07,126.9,34.86z"/>
<path d="M60.93,98.45c-0.91-22.27,17.95-40.11,39.82-39.74c22.04,0.37,40.12,16.73,40.02,40.55c-0.09,21.36-17.05,39.24-40.87,39.27
	C78.31,138.56,59.23,118.6,60.93,98.45z"/>
<path class="st0" d="M171.68,107.64c-3.6-5.88-6.81-11.12-10.43-17.03C169.7,94.21,172.09,98.27,171.68,107.64z"/>
<path class="st0" d="M164.91,101.47c-4.23-0.01-8.37,1-11.38-4.32C157.62,99.22,161.88,97.87,164.91,101.47z"/>
<path class="st0" d="M163.45,88.93c3.41-0.19,6.75-0.4,10.31-1.51C170.76,93.55,167.02,90.87,163.45,88.93z"/>
<path class="st0" d="M150.81,98.61c4.28,3.84,2.81,6.38-1.05,9.06C150.36,104.45,151.31,101.81,150.81,98.61z"/>
<path class="st0" d="M167.19,128.75c-3.24-1.72-4.95-5.23-8.55-6.38c-2.46-0.79-5.07-1.76-6.86,0.01c-2.02,2-1.21,4.93,0.15,7.26
	c1.62,2.76,3.45,5.38,5.1,8.14c2.11,3.53,0.92,6.03-1.35,9.55c-1.69-6.83-5.9-11.52-8.49-17.06c-1.56-3.33-2.83-6.92,0.43-9.86
	c3.27-2.95,6.83-5.73,11.56-2.2c1.39,1.03,3.15,1.55,4.73,2.33C168.37,122.76,168.37,122.77,167.19,128.75z"/>
<path class="st0" d="M157.41,130.62c-1.87-2.18-3.14-4.16-2.29-6.72C160.16,124.42,160.44,126.76,157.41,130.62z"/>
<path class="st0" d="M116.59,36.59c-2.27-2.46-1.85-4.67-0.27-6.82c1.47-2.01,3.76-1.36,5.5-1c2.64,0.55,2.69,3.12,3.39,5.69
	C121.47,32.95,118.72,33.35,116.59,36.59z"/>
<path class="st0" d="M108.12,108.33c6.52,1.59,12.42,3.07,17.7,6.24c3.39,2.03,4.78,0.55,5.04-2.75c0.26-3.29,0.85-6.64,0-9.9
	c-1.57-6.02-0.09-11.99,0.11-17.97c0.16-4.45-1.84-3.72-4.32-2.27c-2.36,1.38-5.04,2.6-6.78,4.6c-3.77,4.34-8.99,2.82-13.62,4.64
	c0.21-8.92,4.15-15.43,9.88-21.11c0.57-0.56,2-0.97,1.14-2.23c-0.31-0.45-1.09-0.91-1.59-0.85c-11.37,1.29-22.73,2.57-33.93,0.59
	c9.71-7.28,25.26-8.19,37.6-0.43c12.02,7.56,19.21,18.69,18.42,33.3c-0.9,16.47-12.76,31.16-30.01,34.41
	c-13.88,2.62-25.05-1.94-34.79-11.48c-2.57-2.51-3.93-4.38,0.4-6.61c4.99-2.56,9.71-5.63,14.54-8.48c0.91-0.54,1.93-0.88,2.72-0.07
	c0.78,0.8-0.36,1.4-0.57,2.11c-1.27,4.32-4.18,7.55-6.99,10.88c-1.12,1.33-2.89,3.24-2.57,4.39c0.57,2.05,3.14,1.24,4.84,1.14
	c5.64-0.33,11.09,1.37,16.75,1.16c4.45-0.16,8.73-1.57,13.24-1.2c2.19,0.18,2.46-0.69,1.19-2.99
	C113.8,118.55,109.9,114.29,108.12,108.33z"/>
<path class="st0" d="M87.91,84.95c0.96,4.28-1.24,3.51-4.56,2.75c-5.5-1.26-8.86-5.61-13.46-8.08c-0.96-0.51-0.62-0.76-0.25-1.33
	c0.44-0.66,0.61-1.61,1.19-2.04c3.21-2.39,4.71-7.03,9.27-7.51C81.54,68.59,87.93,82.06,87.91,84.95z"/>
<path class="st0" d="M85.22,71.41c4.34,2.26,8.39,4.36,12.43,6.5c1.76,0.93,1.99,3.27,1.74,4.3c-1.09,4.6,0.02,9.2-0.61,13.87
	c-6.05-3.02-10.25-6.97-8.94-14.65C90.52,77.45,85.88,75.52,85.22,71.41z"/>
<path class="st0" d="M68.54,116.02c-6.47-11.62-6.11-23.27-0.41-35.85C70.97,92.7,68.56,104.37,68.54,116.02z"/>
<path class="st0" d="M86.5,121.64c3.75-5,6.62-10.16,7.41-16.29c0.36-2.77,2.87-3.71,4.72-6.18c0.47,4.91,1.94,8.92,1.25,13.11
	c-0.41,2.49-0.14,5.21-4.29,5.59C92.46,118.16,89.52,120.32,86.5,121.64z"/>
<path class="st0" d="M95.72,97.48c-17.18,0.39-17.18,0.39-21.96-12.24C80.74,90.76,90.39,89.55,95.72,97.48z"/>
<path class="st0" d="M102.15,97.22c1.83-2.82,4.19-4.68,7.44-4.81c6.41-0.27,11.07-4.15,16.2-7.88
	C121.71,97.24,118.9,98.72,102.15,97.22z"/>
<path class="st0" d="M70.72,113.43c0.53-9.71,2.5-18.05-0.48-27.37c4.1,3.85,4.87,8.23,7.66,11.32c1.2,1.33,0.44,2.65-0.21,3.83
	C75.7,104.84,73.6,108.41,70.72,113.43z"/>
<path class="st0" d="M88.7,70.47c8.09,0.9,15.32-1.92,22.89-0.6C102.84,77.59,100.21,77.7,88.7,70.47z"/>
</svg>
